<?xml version="1.0" encoding="UTF-8" standalone="no"?>
<svg
   xmlns:dc="http://purl.org/dc/elements/1.1/"
   xmlns:cc="http://creativecommons.org/ns#"
   xmlns:rdf="http://www.w3.org/1999/02/22-rdf-syntax-ns#"
   xmlns:svg="http://www.w3.org/2000/svg"
   xmlns="http://www.w3.org/2000/svg"
   width="936"
   height="625"
   viewBox="0 0 247.64999 165.36459"
   version="1.1"
   id="svg3467">
  <defs
     id="defs3461">
    <filter
       style="color-interpolation-filters:sRGB"
       id="filter4566"
       x="-0.00058830041"
       width="1.0011766"
       y="-0.00040537448"
       height="1.0008107">
      <feGaussianBlur
         stdDeviation="0.009033414"
         id="feGaussianBlur4568" />
    </filter>
    <filter
       style="color-interpolation-filters:sRGB"
       id="filter4548"
       x="-0.045229871"
       width="1.0904597"
       y="-0.030461159"
       height="1.0609223">
      <feGaussianBlur
         stdDeviation="0.61909187"
         id="feGaussianBlur4550" />
    </filter>
    <filter
       style="color-interpolation-filters:sRGB"
       id="filter4376"
       x="-0.02337141"
       width="1.0467428"
       y="-0.016104313"
       height="1.0322086">
      <feGaussianBlur
         stdDeviation="0.61296945"
         id="feGaussianBlur4378" />
    </filter>
  </defs>
  <metadata
     id="metadata3464">
    <rdf:RDF>
      <cc:Work
         rdf:about="">
        <dc:format>image/svg+xml</dc:format>
        <dc:type
           rdf:resource="http://purl.org/dc/dcmitype/StillImage" />
        <dc:title></dc:title>
      </cc:Work>
    </rdf:RDF>
  </metadata>
  <rect
     style="opacity:0.01;fill:#878787;fill-opacity:0.01;stroke-width:99.9998;stroke-linecap:square;paint-order:fill markers stroke"
     id="rect859"
     width="248.17917"
     height="165.36458"
     x="0"
     y="5.0809208e-06" />
  <g
     id="g957"
     style="opacity:0.641935"
     transform="translate(11.216033,36.788588)">
    <path
       style="opacity:0.178064;fill:#604907;fill-opacity:0.441767;stroke:none;stroke-width:0.105565;stroke-linecap:round;stroke-linejoin:round;stroke-miterlimit:4;stroke-dasharray:0.211128, 0.211128;stroke-dashoffset:0;stroke-opacity:1;paint-order:fill markers stroke;filter:url(#filter4548)"
       d="m -166.655,677.67751 c -0.38213,-0.1536 -0.39779,-0.24512 -0.39874,-2.33109 -5.4e-4,-1.19416 -0.0787,-2.44963 -0.1736,-2.78993 -0.0949,-0.34029 -0.59168,-1.13443 -1.10387,-1.76475 -5.02755,-6.1871 -7.2677,-9.05167 -7.58599,-9.70053 -0.9426,-1.92153 -0.49679,-4.44594 1.06101,-6.00807 l 0.82076,-0.82303 0.0884,2.4172 c 0.0824,2.25315 0.11747,2.44811 0.51695,2.87262 0.82927,0.88123 2.32396,0.45655 2.66075,-0.756 0.11392,-0.41013 0.17944,-5.71668 0.18007,-14.58358 l 9.9e-4,-13.93884 0.60104,-0.60104 c 0.49041,-0.49042 0.73606,-0.60104 1.3346,-0.60104 0.40346,0 0.97453,0.12461 1.26904,0.2769 1.05217,0.5441 1.03796,0.36501 1.03796,13.07766 v 11.59815 l 0.51673,0.51673 c 0.89718,0.89718 2.20667,0.57383 2.67608,-0.6608 0.0913,-0.24006 0.16594,-2.89608 0.16594,-5.90225 v -5.46579 l 0.49188,-0.55049 c 0.62293,-0.69718 1.79838,-0.88848 2.67474,-0.4353 1.02092,0.52794 1.07603,0.88633 1.07603,6.99854 v 5.49936 l 0.51673,0.51673 c 0.71544,0.71544 1.53339,0.70637 2.23442,-0.0248 l 0.51921,-0.54152 0.0905,-4.45243 c 0.0498,-2.44883 0.15886,-4.59457 0.2424,-4.76832 0.37104,-0.77167 2.27686,-1.11694 3.07593,-0.55725 0.85593,0.59952 0.9222,0.99927 0.9222,5.56255 v 4.26502 l 0.51674,0.51673 c 0.71561,0.71561 1.53347,0.70641 2.23442,-0.0251 0.51836,-0.54099 0.51936,-0.54631 0.6076,-3.24402 0.0946,-2.89076 0.15229,-3.08059 1.0832,-3.56199 1.04082,-0.53823 2.40731,-0.10569 2.89183,0.91536 0.25887,0.54552 0.28301,1.47994 0.22464,8.6926 -0.0731,9.0338 -0.0586,8.9117 -1.38867,11.70529 -0.39347,0.82643 -1.0477,1.93316 -1.45384,2.45941 l -0.73844,0.95681 -0.0574,2.54392 c -0.057,2.52547 -0.0606,2.54514 -0.49764,2.71131 -0.56628,0.2153 -18.39681,0.20127 -18.9346,-0.0149 z"
       id="path45171-94-7-9-6-7-7"
       transform="matrix(0.6708824,0,0,0.70205521,230.92452,-376.13709)" />
    <g
       id="g3904-2-1-0"
       style="opacity:0.422581;mix-blend-mode:normal;stroke-width:1.90365"
       transform="matrix(0.5131618,0,0,0.53774094,213.97251,-502.54069)">
      <path
         style="fill:#000000;fill-opacity:1;stroke:none;stroke-width:190.365;stroke-linecap:square;stroke-opacity:1;paint-order:fill markers stroke"
         d="m -184.68143,1124.1168 c -2.25642,-0.2104 -4.19527,-1.977 -4.61842,-4.2083 -0.0702,-0.3698 -0.12753,-1.7788 -0.12753,-3.1311 v -2.4587 l -1.71551,-2.1118 c -0.94353,-1.1615 -2.10789,-2.5959 -2.58745,-3.1875 -0.47955,-0.5917 -1.77392,-2.1863 -2.87635,-3.5436 -3.24808,-3.9991 -3.55483,-4.4663 -4.19724,-6.3913 -0.79157,-2.372 -0.79909,-4.7 -0.0227,-7.0174 0.90217,-2.6928 2.05881,-4.1525 5.10293,-6.4397 l 1.74018,-1.3075 9.6e-4,-12.171 c 5.3e-4,-6.8092 0.0536,-12.6288 0.12045,-13.2102 0.22279,-1.9374 1.35892,-3.7964 2.96327,-4.8487 1.14042,-0.7479 2.25955,-1.0523 3.87605,-1.0544 1.46285,0 2.34276,0.198 3.54439,0.8046 0.88568,0.4471 2.14284,1.7654 2.65948,2.7889 0.7283,1.4427 0.75685,1.7182 0.75685,7.3028 0,5.5401 -0.0236,5.3686 0.69887,5.0939 0.19956,-0.076 0.782,-0.191 1.29431,-0.2561 1.37767,-0.1746 2.64537,0.032 3.9263,0.6382 1.40664,0.6663 2.27148,1.4842 3.23044,3.0551 l 0.20479,0.3354 0.79631,-0.3245 c 0.62679,-0.2556 1.07918,-0.3367 2.12517,-0.3805 1.47846,-0.062 2.4087,0.116 3.63343,0.696 1.34471,0.6366 2.87001,2.3457 3.32651,3.7273 0.2448,0.7407 0.21628,0.7314 1.32459,0.4332 1.04334,-0.2807 2.71441,-0.2603 3.91923,0.048 1.70814,0.4368 3.36955,1.7796 4.15265,3.3561 0.8389,1.6889 0.79228,0.9628 0.79228,12.3395 0,10.1601 -0.005,10.3382 -0.2861,11.8965 -0.40681,2.2495 -0.83721,3.6342 -1.68279,5.414 -0.81112,1.7074 -1.43298,2.7893 -2.16864,3.773 l -0.48186,0.6443 -0.002,2.14 c -0.001,1.177 -0.0594,2.5387 -0.12901,3.0259 -0.3365,2.3564 -2.1826,4.1999 -4.50565,4.4992 -0.81353,0.1043 -23.68783,0.133 -24.78771,0.031 z m 24.53808,-4.208 c 0.63835,-0.2426 0.71036,-0.6215 0.71036,-3.7376 0,-3.2512 -0.0384,-3.0997 1.17725,-4.6474 1.52683,-1.9438 2.79695,-4.9392 3.28696,-7.7517 0.11377,-0.6531 0.15519,-3.5759 0.15519,-10.9522 v -10.0614 l -0.3164,-0.5644 c -0.20148,-0.3593 -0.54056,-0.7028 -0.93358,-0.9457 -0.53787,-0.3323 -0.73302,-0.3808 -1.5187,-0.3772 -1.31535,0.011 -2.21641,0.5552 -2.68182,1.6341 -0.0601,0.1393 -0.13966,1.7081 -0.17691,3.4865 -0.0749,3.575 -0.0741,3.5714 -0.95049,4.2398 -0.88426,0.6745 -2.23307,0.3569 -2.87598,-0.677 -0.28954,-0.4656 -0.29149,-0.4987 -0.35441,-6.0367 -0.0685,-6.0266 -0.0586,-5.9427 -0.77897,-6.598 -0.55561,-0.5054 -1.06858,-0.6792 -2.00408,-0.6792 -1.32679,0 -2.14795,0.4908 -2.58966,1.548 -0.16573,0.3967 -0.19674,1.2729 -0.20143,5.6935 -0.006,5.4816 -0.0389,5.8466 -0.58327,6.4482 -0.36447,0.4027 -0.90923,0.6325 -1.4994,0.6325 -0.68788,0 -1.22082,-0.2761 -1.67035,-0.8652 l -0.35458,-0.4647 -0.0632,-7.2871 c -0.0562,-6.4779 -0.0866,-7.3293 -0.27345,-7.6668 -0.69888,-1.2625 -2.42065,-1.8066 -3.77415,-1.1927 -0.7156,0.3246 -0.97321,0.5587 -1.31297,1.1927 -0.26594,0.4963 -0.27253,0.6482 -0.33457,7.7201 -0.0589,6.7233 -0.0791,7.24 -0.29677,7.5992 -0.43643,0.7205 -1.1007,1.0199 -2.13507,0.9625 -0.42998,-0.024 -1.22071,-0.7053 -1.44705,-1.2469 -0.14026,-0.3357 -0.17098,-3.0379 -0.17098,-15.0381 0,-10.2517 -0.0418,-14.7949 -0.13972,-15.1837 -0.0768,-0.3052 -0.33373,-0.7816 -0.57085,-1.0586 -0.58343,-0.6816 -1.31101,-0.9471 -2.41512,-0.8813 -1.04413,0.062 -1.80651,0.506 -2.23049,1.2981 l -0.27568,0.5151 -0.0632,18.2877 c -0.0629,18.1679 -0.0649,18.2906 -0.32345,18.7306 -0.78667,1.3391 -2.81219,1.3028 -3.5254,-0.063 -0.24111,-0.4617 -0.26799,-0.7588 -0.3063,-3.3855 -0.0245,-1.6786 -0.0915,-2.8791 -0.16073,-2.8791 -0.0653,0 -0.53557,0.4129 -1.04504,0.9175 -1.96949,1.9509 -2.56941,4.557 -1.66788,7.2455 0.36913,1.1008 0.83058,1.7668 3.50779,5.0623 4.58428,5.6433 7.18025,8.8853 7.57089,9.4553 l 0.44295,0.6461 0.0656,3.1757 c 0.0362,1.7466 0.11062,3.268 0.16559,3.381 0.055,0.1134 0.22472,0.2658 0.37727,0.3395 0.36395,0.1759 24.1024,0.2049 24.56234,0.031 z"
         id="path3811-9-6-0" />
      <path
         style="fill:#000000;fill-opacity:1;stroke:none;stroke-width:190.365;stroke-linecap:square;stroke-opacity:1;paint-order:fill markers stroke"
         d="m -212.41029,1058.5345 c -0.66861,-0.3037 -1.08833,-0.899 -1.16005,-1.6454 -0.0741,-0.7714 0.19678,-1.4009 0.80125,-1.8619 l 0.47818,-0.3647 h 6.91714 6.91715 l 0.44693,0.3409 c 1.26516,0.9649 1.08669,2.8888 -0.32755,3.5311 -0.48439,0.2199 -0.95055,0.2356 -7.03653,0.2356 -6.08598,0 -6.55213,-0.016 -7.03652,-0.2356 z"
         id="path3813-4-0-8" />
      <path
         style="fill:#000000;fill-opacity:1;stroke:none;stroke-width:190.365;stroke-linecap:square;stroke-opacity:1;paint-order:fill markers stroke"
         d="m -196.76159,1051.3624 c -0.55852,-0.2422 -9.30321,-8.9299 -9.63513,-9.5723 -1.0192,-1.9724 1.13525,-3.918 2.94027,-2.6552 0.63481,0.444 8.7943,8.6193 9.20273,9.2205 0.68557,1.0091 0.33997,2.3783 -0.73742,2.9216 -0.65194,0.3288 -1.15365,0.3529 -1.77045,0.085 z"
         id="path3815-1-6-9" />
      <path
         style="fill:#000000;fill-opacity:1;stroke:none;stroke-width:190.365;stroke-linecap:square;stroke-opacity:1;paint-order:fill markers stroke"
         d="m -187.90867,1049.1992 c -0.48682,-0.2004 -0.9359,-0.6316 -1.15101,-1.1052 -0.21986,-0.4842 -0.23577,-0.9542 -0.23837,-7.0415 -0.002,-6.5154 -0.002,-6.5231 0.28198,-7.0862 0.3897,-0.7713 0.96772,-1.1353 1.80347,-1.1353 0.83574,0 1.41377,0.364 1.80345,1.1353 0.28445,0.5631 0.28476,0.5708 0.28198,7.0862 -0.002,6.0873 -0.0185,6.5573 -0.23836,7.0415 -0.32195,0.7088 -0.90473,1.0997 -1.70891,1.1461 -0.35443,0.02 -0.72983,0 -0.83423,-0.041 z"
         id="path3817-9-84-6" />
      <path
         style="fill:#000000;fill-opacity:1;stroke:none;stroke-width:190.365;stroke-linecap:square;stroke-opacity:1;paint-order:fill markers stroke"
         d="m -179.15462,1051.4712 c -0.16218,-0.031 -0.51404,-0.2753 -0.78187,-0.5433 -0.56243,-0.5623 -0.75417,-1.3328 -0.51332,-2.0626 0.18287,-0.5541 8.75004,-9.2996 9.59511,-9.7949 1.03559,-0.6069 2.13011,-0.3682 2.77408,0.6049 0.39997,0.6043 0.44454,1.3622 0.11721,1.9928 -0.32126,0.6189 -9.36679,9.5445 -9.85903,9.7284 -0.41149,0.1536 -0.80254,0.1755 -1.33218,0.075 z"
         id="path3819-1-6-2" />
      <path
         style="fill:#000000;fill-opacity:1;stroke:none;stroke-width:190.365;stroke-linecap:square;stroke-opacity:1;paint-order:fill markers stroke"
         d="m -176.08796,1058.5345 c -0.69978,-0.3178 -1.09562,-0.903 -1.16336,-1.7199 -0.0661,-0.7968 0.16145,-1.2969 0.81773,-1.7975 l 0.46476,-0.3546 6.75281,-0.036 c 7.53511,-0.04 7.30075,-0.065 7.98672,0.8348 0.28373,0.3721 0.34089,0.576 0.34089,1.2162 0,0.9363 -0.3425,1.5008 -1.1265,1.8569 -0.4844,0.22 -0.95055,0.2356 -7.03653,0.2356 -6.08598,0 -6.55213,-0.016 -7.03652,-0.2356 z"
         id="path3821-1-4-2" />
    </g>
  </g>
</svg>
